<mxfile host="app.diagrams.net" agent="Mozilla/5.0 (X11; Ubuntu; Linux x86_64; rv:129.0) Gecko/20100101 Firefox/129.0" version="24.7.7">
  <diagram id="C5RBs43oDa-KdzZeNtuy" name="Page-1">
    <mxGraphModel dx="2191" dy="795" grid="1" gridSize="10" guides="1" tooltips="1" connect="1" arrows="1" fold="1" page="1" pageScale="1" pageWidth="827" pageHeight="1169" math="0" shadow="0">
      <root>
        <mxCell id="WIyWlLk6GJQsqaUBKTNV-0" />
        <mxCell id="WIyWlLk6GJQsqaUBKTNV-1" parent="WIyWlLk6GJQsqaUBKTNV-0" />
        <mxCell id="XCN85X0G9YiUdRCzX4gr-10" value="" style="edgeStyle=orthogonalEdgeStyle;rounded=0;orthogonalLoop=1;jettySize=auto;html=1;" edge="1" parent="WIyWlLk6GJQsqaUBKTNV-1" source="XCN85X0G9YiUdRCzX4gr-0" target="XCN85X0G9YiUdRCzX4gr-4">
          <mxGeometry relative="1" as="geometry" />
        </mxCell>
        <mxCell id="XCN85X0G9YiUdRCzX4gr-0" value="INPUT" style="shape=parallelogram;html=1;strokeWidth=2;perimeter=parallelogramPerimeter;whiteSpace=wrap;rounded=1;arcSize=12;size=0.23;" vertex="1" parent="WIyWlLk6GJQsqaUBKTNV-1">
          <mxGeometry x="-810" y="200" width="100" height="60" as="geometry" />
        </mxCell>
        <mxCell id="XCN85X0G9YiUdRCzX4gr-13" value="" style="edgeStyle=orthogonalEdgeStyle;rounded=0;orthogonalLoop=1;jettySize=auto;html=1;" edge="1" parent="WIyWlLk6GJQsqaUBKTNV-1" source="XCN85X0G9YiUdRCzX4gr-2" target="XCN85X0G9YiUdRCzX4gr-5">
          <mxGeometry relative="1" as="geometry" />
        </mxCell>
        <mxCell id="XCN85X0G9YiUdRCzX4gr-2" value="EXPANSION" style="rounded=1;whiteSpace=wrap;html=1;absoluteArcSize=1;arcSize=14;strokeWidth=2;" vertex="1" parent="WIyWlLk6GJQsqaUBKTNV-1">
          <mxGeometry x="-400" y="190" width="100" height="100" as="geometry" />
        </mxCell>
        <mxCell id="XCN85X0G9YiUdRCzX4gr-12" value="" style="edgeStyle=orthogonalEdgeStyle;rounded=0;orthogonalLoop=1;jettySize=auto;html=1;" edge="1" parent="WIyWlLk6GJQsqaUBKTNV-1" source="XCN85X0G9YiUdRCzX4gr-3" target="XCN85X0G9YiUdRCzX4gr-2">
          <mxGeometry relative="1" as="geometry" />
        </mxCell>
        <mxCell id="XCN85X0G9YiUdRCzX4gr-3" value="PARSING" style="rounded=1;whiteSpace=wrap;html=1;absoluteArcSize=1;arcSize=14;strokeWidth=2;" vertex="1" parent="WIyWlLk6GJQsqaUBKTNV-1">
          <mxGeometry x="-540" y="190" width="100" height="100" as="geometry" />
        </mxCell>
        <mxCell id="XCN85X0G9YiUdRCzX4gr-11" value="" style="edgeStyle=orthogonalEdgeStyle;rounded=0;orthogonalLoop=1;jettySize=auto;html=1;" edge="1" parent="WIyWlLk6GJQsqaUBKTNV-1" source="XCN85X0G9YiUdRCzX4gr-4" target="XCN85X0G9YiUdRCzX4gr-3">
          <mxGeometry relative="1" as="geometry" />
        </mxCell>
        <mxCell id="XCN85X0G9YiUdRCzX4gr-4" value="TOKENIZATION" style="rounded=1;whiteSpace=wrap;html=1;absoluteArcSize=1;arcSize=14;strokeWidth=2;" vertex="1" parent="WIyWlLk6GJQsqaUBKTNV-1">
          <mxGeometry x="-680" y="190" width="100" height="100" as="geometry" />
        </mxCell>
        <mxCell id="XCN85X0G9YiUdRCzX4gr-14" value="" style="edgeStyle=orthogonalEdgeStyle;rounded=0;orthogonalLoop=1;jettySize=auto;html=1;" edge="1" parent="WIyWlLk6GJQsqaUBKTNV-1" source="XCN85X0G9YiUdRCzX4gr-5" target="XCN85X0G9YiUdRCzX4gr-8">
          <mxGeometry relative="1" as="geometry" />
        </mxCell>
        <mxCell id="XCN85X0G9YiUdRCzX4gr-5" value="REDIRECTIONS" style="rounded=1;whiteSpace=wrap;html=1;absoluteArcSize=1;arcSize=14;strokeWidth=2;" vertex="1" parent="WIyWlLk6GJQsqaUBKTNV-1">
          <mxGeometry x="-270" y="190" width="100" height="100" as="geometry" />
        </mxCell>
        <mxCell id="XCN85X0G9YiUdRCzX4gr-15" value="" style="edgeStyle=orthogonalEdgeStyle;rounded=0;orthogonalLoop=1;jettySize=auto;html=1;" edge="1" parent="WIyWlLk6GJQsqaUBKTNV-1" source="XCN85X0G9YiUdRCzX4gr-8" target="XCN85X0G9YiUdRCzX4gr-9">
          <mxGeometry relative="1" as="geometry" />
        </mxCell>
        <mxCell id="XCN85X0G9YiUdRCzX4gr-8" value="EXECUTION" style="rounded=1;whiteSpace=wrap;html=1;absoluteArcSize=1;arcSize=14;strokeWidth=2;" vertex="1" parent="WIyWlLk6GJQsqaUBKTNV-1">
          <mxGeometry x="-130" y="190" width="100" height="100" as="geometry" />
        </mxCell>
        <mxCell id="XCN85X0G9YiUdRCzX4gr-9" value="OUTPUT" style="shape=parallelogram;html=1;strokeWidth=2;perimeter=parallelogramPerimeter;whiteSpace=wrap;rounded=1;arcSize=12;size=0.23;" vertex="1" parent="WIyWlLk6GJQsqaUBKTNV-1">
          <mxGeometry x="10" y="200" width="100" height="60" as="geometry" />
        </mxCell>
      </root>
    </mxGraphModel>
  </diagram>
</mxfile>
